<?xml version="1.0" encoding="utf-8"?>
<!-- Generator: Adobe Illustrator 27.0.0, SVG Export Plug-In . SVG Version: 6.00 Build 0)  -->
<svg version="1.1" id="Layer_2_00000141437818995450575450000008875723994339779990_"
	 xmlns="http://www.w3.org/2000/svg" xmlns:xlink="http://www.w3.org/1999/xlink" x="0px" y="0px" viewBox="0 0 3601.6 1447.9"
	 style="enable-background:new 0 0 3601.6 1447.9;" xml:space="preserve">
<style type="text/css">
	.st0{fill:#E0E0E0;}
	.st1{fill:#494949;}
	.st2{fill:#9FD3E8;}
	.st3{fill:#FFFFFF;}
	.st4{fill:none;}
	.st5{fill:none;stroke:#494949;stroke-width:8.4106;stroke-miterlimit:10;}
	.st6{fill:#494949;stroke:#494949;stroke-width:4.8809;stroke-miterlimit:10;}
</style>
<g id="Layer_2-2">
	<g>
		<path class="st0" d="M2034.4,1311.6c3.8-1.4,8.4-1.3,12.7-1.4c13-0.5,25.1-0.1,38.1,0.6c13.5,0.7,27,0.7,40.4,1.9
			c14.6,1.3,24.4,3.8,38.7,5.8c21.1,2.9,43,3.9,63.6,8.2c14.9,3,24.9,7.9,36.5,14.9c2.8,1.7,10.9,5.5,8.5,9.3
			c-2.8,4.5-9.7,5.2-15.3,6.8c-5.7,1.7-11.2,3.7-17.1,5c-19.5,4.3-43.5,4.9-63.7,5.7c-8,0.3-16.1-0.2-24.1,0.2
			c-32.4,1.3-64.8,3.4-97.4,2.2c-11.4-0.4-22.6-2.1-34-2.3c-11.4-0.2-22.9,0.3-34.3-0.4c-10.8-0.7-21.6-1.7-32.3-1.2
			c-5.5,0.2-11,1.2-16.5,1.2c-17.8,0.3-35.5-2.9-51.3-8.5c-8.5-3-17.2-6.4-21.2-12.7c-8.6-13.3,9.3-22.4,26.1-26.1
			c10.6-2.3,21.8-3.3,32.8-4c13.7-0.9,27.7,1.4,41.3,0.4c11.8-0.8,23.6-4.3,35.3-6c6.6-1,14-0.9,20.8-1.5c4.1-0.3,19.2-4.6,22.1-3.4
			c2.3,0.9,4.3,2.6,6.3,3.8"/>
		<path class="st0" d="M773,1303.3c-1.5-0.8-2.8-3.4-0.8-3.4c40.5,0.5,80.7,3.8,121.2,4.9c31.1,0.8,62.4,0.1,93.5,1
			c77.4,2.3,158.7,15.5,233.2,26.8c17.7,2.7,36,4.7,52.8,8.8c18.6,4.6,61.4,18.6,52,34.4c-19.8,33.7-95.9,35.7-143.5,44.1
			c-23.7,4.2-45.8,10.9-69.7,14.7c-41.2,6.7-84.8,6.4-127.5,8.4c-49.2,2.3-98.9,6.9-147.9,3.5c-47.7-3.3-93.7-12.2-140.7-17.8
			c-45.9-5.4-80.8-6.1-124.5-15.8c-16.6-3.7-31.4-9.7-47.5-14c-24.4-6.6-105.6-17.8-117.6-34.3c-6-8.3,21-15.2,30.3-17.7
			c12.6-3.4,25.5-6.5,38.6-9.2c15.8-3.3,31.8-6.2,47.9-8.9c71-11.9,139.6-14.5,212.6-15.8c11.9-0.2,23.6-1.7,35.4-2.6
			c6.3-0.5,17.9,1.7,19-1.9C790.9,1305,777.9,1305.7,773,1303.3L773,1303.3z"/>
		<path class="st1" d="M1744.4,1145h-634.7c-5.8,0-10.6-4.7-10.6-10.6s4.7-10.6,10.6-10.6h634.7c5.8,0,10.6,4.7,10.6,10.6
			S1750.2,1145,1744.4,1145L1744.4,1145z"/>
		<path class="st1" d="M3571.1,1145H2172.2c-16.9,0-30.5-4.9-30.5-10.8s13.7-10.8,30.5-10.8h1398.8c16.9,0,30.5,4.9,30.5,10.8
			S3587.9,1145,3571.1,1145L3571.1,1145z"/>
		<path class="st1" d="M865.8,1128.6c-5.8,0-10.5-4.7-10.6-10.5c0-5.8,4.7-10.6,10.5-10.6c5.6,0,9.6-1.1,11.1-2.9
			c3-3.8,0.3-15-1.2-21.7c-1.2-4.9-2.1-9.1-2.2-12.8c0-5.8,4.7-10.6,10.5-10.6l14.5-0.1c34.8-29.8,72.8-50.5,109.5-70.6
			c21.7-11.8,42.2-23,61.7-35.8c12.4-14.8,47.1-37.1,87.8-62.6c11.5-7.2,24.2-15.2,29.3-18.9c1.7-3.4,5.3-5.8,9.4-5.8h0.1
			c4.7,0,9.4,3.3,10.7,7.8c2.7,9.1,0.4,10.6-38.2,34.7c-27.6,17.3-73.6,46.2-83.4,59c-0.7,1-1.6,1.8-2.6,2.4
			c-20.7,13.6-43,25.8-64.6,37.6c-36.8,20.1-74.9,40.8-108.7,70.5c-1.9,1.7-4.3,2.6-6.9,2.6l-5.8,0c2.7,11.4,5.4,26.2-3.3,37.2
			C887.7,1124.9,878.4,1128.6,865.8,1128.6L865.8,1128.6L865.8,1128.6z"/>
		<g>
			<path class="st2" d="M1444.6,1134.5H1183V610.2h261.5V1134.5z"/>
			<path class="st1" d="M1444.6,1145H1183c-5.8,0-10.6-4.7-10.6-10.6V610.2c0-5.8,4.7-10.6,10.6-10.6h261.5
				c5.8,0,10.6,4.7,10.6,10.6v524.2C1455.1,1140.3,1450.4,1145,1444.6,1145z M1193.6,1123.9H1434V620.8h-240.4L1193.6,1123.9
				L1193.6,1123.9z"/>
		</g>
		<g>
			<g>
				<path class="st3" d="M1036.6,260.7c-13.7,96.9-57.2,203-47.4,302.4c5.9,59.5,41.2,118.3,74.3,163.5
					c61.3,83.6,184.2,158.5,283.1,128.1c45.1-13.9,91.3-37.5,128.5-67.6c50.7-41.2,77-109.4,91.6-178.2
					c34.4-161.9-20.1-321-63-472.3"/>
				<path class="st1" d="M1299.7,872c-90.3,0-189.7-64.1-244.7-139.2c-46.4-63.2-71.4-118.4-76.3-168.6c-6.5-66.6,10-135.5,26-202.2
					c8.6-35.8,16.7-69.6,21.4-102.8c0.8-5.8,6-9.9,11.9-9c5.8,0.8,9.8,6.2,9,11.9c-4.8,34.2-13.4,70-21.8,104.7
					c-15.6,64.9-31.7,132.1-25.5,195.2c4.6,46.3,28.2,98.1,72.3,158.2c61.1,83.4,179.3,152.6,271.4,124.3
					c45.6-14,90-37.4,124.9-65.7c41.7-33.9,70.5-90.2,87.9-172.2c30.6-144-10.6-286.3-50.4-423.9l-12.4-43.3
					c-1.6-5.6,1.7-11.4,7.3-13c5.7-1.6,11.5,1.7,13,7.3l12.4,43.2c40.6,140.1,82.5,285,50.8,434.2c-18.5,86.8-49.7,147.1-95.3,184.2
					c-37,30-83.9,54.7-132,69.5C1333.6,869.7,1316.8,872.1,1299.7,872L1299.7,872z"/>
			</g>
			<path class="st1" d="M1092.7,333.1c-0.5,0-1,0-1.5-0.1c-5.8-0.8-9.8-6.2-9-11.9c8.8-62-12.9-112.4-35.9-165.8
				c-11-25.6-22.4-52-30.4-80c-1.6-5.6,1.7-11.4,7.3-13c5.5-1.7,11.4,1.7,13,7.3c7.6,26.7,18.7,52.5,29.4,77.4
				c23.2,53.7,47.1,109.2,37.4,177.1C1102.4,329.3,1097.9,333.1,1092.7,333.1L1092.7,333.1z"/>
			<path class="st1" d="M1199.4,300.3c-5.3,0-9.9-4-10.5-9.4c-12.4-113.7-43.7-238.4-94.2-247.4c-5.8-1-9.6-6.5-8.6-12.3
				c1-5.7,6.6-9.5,12.2-8.5c75.9,13.5,103.2,190.4,111.5,265.9c0.6,5.8-3.6,11-9.3,11.6C1200.2,300.2,1199.7,300.2,1199.4,300.3
				L1199.4,300.3z"/>
			<path class="st1" d="M1266,255.1c-0.5,0-1,0-1.5-0.1c-5.8-0.8-9.8-6.2-9-11.9c7.7-54.8-13.5-107.6-34-158.7
				c-9.3-23-18.8-46.8-25.5-70.4c-1.6-5.6,1.7-11.4,7.3-13.1c5.6-1.6,11.4,1.7,13,7.3c6.4,22.5,15.3,44.7,24.8,68.3
				c21.6,53.7,43.8,109.1,35.3,169.5C1275.7,251.3,1271.2,255.1,1266,255.1L1266,255.1z"/>
			<path class="st1" d="M1346.6,274.7c-5.5,0-10.1-4.2-10.5-9.7c-7.3-91.9-15.7-169-50.9-254.7c-2.2-5.4,0.4-11.6,5.8-13.8
				c5.4-2.3,11.6,0.3,13.8,5.8c36.3,88.3,45.2,170.5,52.4,261c0.5,5.8-3.9,10.9-9.7,11.4C1347.2,274.6,1346.9,274.7,1346.6,274.7
				L1346.6,274.7z"/>
			<path class="st1" d="M1415.6,245.5c-0.5,0-1,0-1.5-0.1c-5.8-0.8-9.8-6.1-9-11.9c10.3-73.1-9.5-121.1-36.9-187.7
				c-2.2-5.4,0.4-11.6,5.8-13.8c5.4-2.2,11.6,0.3,13.8,5.8c28.7,69.6,49.4,119.9,38.2,198.7C1425.3,241.7,1420.8,245.5,1415.6,245.5
				L1415.6,245.5z"/>
			<path class="st1" d="M1471.8,208.9c-5.2,0-9.7-3.8-10.4-9c-1.4-9.6-2.5-18.6-3.5-27.3c-3.6-30.1-6.4-53.9-21.1-82.8
				c-2.6-5.2-0.6-11.6,4.6-14.2c5.2-2.6,11.6-0.6,14.2,4.6c16.4,32.3,19.6,59,23.3,89.9c1,8.5,2.1,17.3,3.5,26.7
				c0.8,5.8-3.1,11.1-8.9,12C1472.8,208.8,1472.3,208.9,1471.8,208.9L1471.8,208.9z"/>
		</g>
		<g>
			<polyline class="st3" points="939.7,1165.5 1184.3,1197.5 991.1,1371.1 			"/>
			<path class="st1" d="M991.1,1381.6c-2.9,0-5.8-1.2-7.9-3.5c-3.9-4.3-3.5-11,0.8-14.9l176.1-158.2l-221.8-29
				c-5.8-0.8-9.8-6.1-9.1-11.8c0.8-5.8,6-9.7,11.8-9.1l244.6,32c4.1,0.5,7.5,3.4,8.7,7.3c1.2,3.9,0,8.2-3,11l-193.2,173.6
				C996.2,1380.7,993.7,1381.6,991.1,1381.6L991.1,1381.6z"/>
		</g>
		<g>
			<polyline class="st3" points="939.7,1205.2 1075.2,1226.3 981.4,1332.2 			"/>
			<path class="st1" d="M981.4,1342.8c-2.5,0-5-0.9-7-2.7c-4.4-3.9-4.8-10.5-0.9-14.9l81-91.5l-116.3-18.1
				c-5.8-0.9-9.7-6.3-8.8-12.1c0.9-5.7,6-9.7,12-8.8l135.4,21.1c3.8,0.6,7,3.2,8.3,6.9c1.3,3.6,0.6,7.7-2,10.6l-93.8,105.9
				C987.2,1341.5,984.3,1342.7,981.4,1342.8L981.4,1342.8z"/>
		</g>
		<g>
			<line class="st4" x1="865.1" y1="1250.7" x2="1027.3" y2="1268.3"/>
			<path class="st1" d="M1027.3,1278.9c-0.4,0-0.7,0-1.1-0.1L864,1261.2c-5.8-0.6-10-5.8-9.4-11.6c0.6-5.8,5.4-10.4,11.6-9.3
				l162.2,17.6c5.8,0.6,10,5.8,9.4,11.6C1037.2,1274.8,1032.6,1278.9,1027.3,1278.9L1027.3,1278.9z"/>
		</g>
		<g>
			<line class="st4" x1="1000.9" y1="1219.9" x2="939.7" y2="1320.7"/>
			<path class="st1" d="M939.8,1331.2c-1.9,0-3.8-0.5-5.5-1.5c-5-3-6.6-9.5-3.5-14.5l61.2-100.8c3-5,9.5-6.6,14.5-3.6
				c5,3,6.6,9.5,3.5,14.5l-61.2,100.8C946.8,1329.4,943.3,1331.2,939.8,1331.2L939.8,1331.2z"/>
		</g>
		<g>
			<polygon class="st3" points="279.9,897.9 884.5,911.1 991.1,1371.1 394.7,1337.5 			"/>
			<path class="st1" d="M991.1,1381.6c-0.2,0-0.4,0-0.6,0L394.1,1348c-4.6-0.3-8.4-3.4-9.6-7.9L269.7,900.5c-0.8-3.2-0.1-6.6,2-9.2
				c2.1-2.6,6.4-4.2,8.5-4l604.6,13.2c4.8,0.1,9,3.5,10.1,8.2l106.6,460c0.7,3.2-0.1,6.6-2.2,9.2
				C997.2,1380.3,994.3,1381.6,991.1,1381.6L991.1,1381.6z M403,1327.4l574.7,32.4L876.1,921.5l-582.4-12.7L403,1327.4L403,1327.4z"
				/>
		</g>
		<path class="st1" d="M319.5,1176.1h-309c-5.8,0-10.6-4.7-10.6-10.6s4.7-10.6,10.6-10.6h309c5.8,0,10.6,4.7,10.6,10.6
			S325.4,1176.1,319.5,1176.1z"/>
		<g>
			<path class="st1" d="M2064.3,978l-249.9-0.3l11.5-36.9c6-16.8,22.2-27.3,39.8-27.5l147.4,0.2h0.1c17.5,0,33.1,11.1,39,27.6
				L2064.3,978L2064.3,978z M1852.7,949.6l172.7,0.2c-1.8-4.8-6.8-8.2-12.2-8.2h0l-147.7-0.2
				C1860.3,941.8,1854.7,944.6,1852.7,949.6L1852.7,949.6z"/>
			<path class="st1" d="M2021.3,1341.1L2021.3,1341.1l-165.5-0.2c-12.2,0-22.4-9.6-23.1-21.8l-3.3-60.3l219.3,0.3l-4.2,60.4
				C2043.6,1331.6,2033.5,1341.1,2021.3,1341.1L2021.3,1341.1z M2021.2,1313L2021.2,1313z M1860.5,1312.8l156.1,0.2l1.8-25.8
				l-159.3-0.2L1860.5,1312.8L1860.5,1312.8z"/>
			<path class="st1" d="M2047.7,1269l-217.8-0.3l-10-173.6l238.2,0.3L2047.7,1269L2047.7,1269z M1856.4,1240.6l164.8,0.2l7-117.3
				l-178.5-0.2L1856.4,1240.6L1856.4,1240.6z"/>
			<path class="st1" d="M2057.4,1105.3l-236.8-0.3l-5.7-82.7l248.4,0.3L2057.4,1105.3L2057.4,1105.3z M1846.9,1076.9l184.3,0.2
				l1.9-26.4l-188-0.3L1846.9,1076.9L1846.9,1076.9z"/>
			<path class="st1" d="M2075.5,1032.6L2075.5,1032.6l-272.8-0.3c-12.8,0-23.1-10.4-23.1-23.2l0-18.2c0-12.7,10.4-23.1,23.2-23.1
				l272.8,0.4c12.7,0,23.1,10.4,23.1,23.2l0,18.2c0,6.2-2.4,12-6.8,16.4C2087.5,1030.2,2081.7,1032.6,2075.5,1032.6z M2075.5,1004.5
				L2075.5,1004.5z M1807.7,1004.1l262.8,0.3l0-8.2l-262.8-0.4L1807.7,1004.1L1807.7,1004.1z"/>
			<path class="st1" d="M1938.9,1223.4L1938.9,1223.4c-11.1,0-21.5-4.3-29.3-12.2c-7.8-7.8-12.1-18.2-12.1-29.3
				c0.1-22.8,18.6-41.3,41.3-41.3h0.1c11.1,0,21.4,4.3,29.2,12.2c7.8,7.8,12.1,18.2,12.1,29.3c0,11-4.3,21.4-12.2,29.2
				C1960.3,1219.1,1949.9,1223.4,1938.9,1223.4L1938.9,1223.4z M1938.9,1168.8c-7.3,0-13.2,5.9-13.2,13.2c0,3.5,1.4,6.8,3.8,9.3
				c2.5,2.5,5.8,3.9,9.3,3.9h0c3.5,0,6.8-1.4,9.3-3.8s3.9-5.8,3.9-9.3s-1.4-6.8-3.8-9.3C1945.7,1170.2,1942.4,1168.8,1938.9,1168.8
				L1938.9,1168.8L1938.9,1168.8z"/>
		</g>
		<path class="st1" d="M1032.7,1221.4c-1.9,0-3.8-0.5-5.6-1.6c-12.3-7.6-18.3-19-16.3-31.1c2.1-13.1,13.4-24.7,27.5-28.6
			c11.6-6.2,21.1-0.3,26.3,2.9c1,0.6,2,1.2,2.9,1.7c20.4-9.9,117.7-96.4,176.6-148.7c47.6-42.3,74.9-66.5,82.4-71.2
			c84.5-52.2,91.9-50.5,97-49.3c5.7,1.3,9.2,7,7.9,12.7c-1.2,5-6.1,8-10.6,8.1c-6.7,1.7-35.1,16.7-83.1,46.4
			c-6.4,3.9-41.9,35.5-79.5,69c-163.2,145.1-181.9,157-193.7,154.2c-4.4-1-8-3.3-10.9-5.1c-1.5-0.9-3.9-2.4-4.8-2.5
			c-1,0.6-2.9,1.5-4,1.7c-6.4,1.5-12.3,6.8-13.1,11.9c-0.6,3.4,1.7,6.7,6.6,9.8c4.9,3.1,6.5,9.6,3.4,14.5
			C1039.7,1219.6,1036.2,1221.4,1032.7,1221.4L1032.7,1221.4z"/>
	</g>
</g>
<path class="st5" d="M1231.4,558.4c18.9,31.4,70.2,35.2,114.6,8.4"/>
<circle class="st6" cx="1118.5" cy="499.1" r="24"/>
<circle class="st6" cx="1455.1" cy="499.1" r="24"/>
</svg>
