<?xml version="1.0" encoding="UTF-8"?>
<svg id="Layer_2" data-name="Layer 2" xmlns="http://www.w3.org/2000/svg" viewBox="0 0 3601.62 1447.92">
  <defs>
    <style>
      .cls-1 {
        fill: #fff;
      }

      .cls-2 {
        fill: #7f9aa5;
      }

      .cls-3 {
        fill: #e0e0e0;
      }

      .cls-4 {
        fill: #494949;
      }
    </style>
  </defs>
  <g id="Layer_2-2" data-name="Layer 2">
    <g>
      <path class="cls-3" d="M2034.45,1311.64c3.8-1.4,8.43-1.28,12.71-1.43,13.02-.47,25.1-.07,38.14,.57,13.48,.65,27.03,.72,40.42,1.95,14.57,1.33,24.36,3.83,38.71,5.78,21.08,2.86,43.03,3.95,63.62,8.18,14.85,3.04,24.92,7.95,36.49,14.88,2.78,1.66,10.88,5.5,8.52,9.26-2.77,4.46-9.66,5.15-15.32,6.81-5.72,1.68-11.23,3.74-17.14,5.04-19.53,4.26-43.51,4.87-63.72,5.66-8.04,.31-16.09-.15-24.11,.16-32.38,1.29-64.81,3.44-97.35,2.22-11.37-.41-22.63-2.07-34.02-2.29-11.45-.22-22.95,.31-34.35-.4-10.76-.65-21.55-1.71-32.32-1.25-5.52,.23-10.96,1.16-16.48,1.25-17.83,.33-35.48-2.93-51.33-8.46-8.51-2.97-17.17-6.39-21.23-12.71-8.55-13.26,9.27-22.43,26.08-26.08,10.6-2.29,21.75-3.29,32.8-4,13.74-.88,27.71,1.37,41.33,.4,11.85-.85,23.64-4.31,35.26-6.01,6.63-.96,13.99-.89,20.75-1.48,4.05-.35,19.23-4.56,22.14-3.42,2.3,.89,4.3,2.56,6.32,3.77"/>
      <path class="cls-3" d="M772.99,1303.35c-1.51-.75-2.77-3.44-.76-3.41,40.47,.48,80.73,3.75,121.16,4.86,31.14,.85,62.41,.12,93.55,1.04,77.41,2.3,158.69,15.46,233.24,26.85,17.73,2.71,35.97,4.69,52.78,8.85,18.62,4.62,61.36,18.6,52.03,34.45-19.84,33.72-95.94,35.73-143.47,44.12-23.66,4.18-45.85,10.89-69.68,14.73-41.18,6.65-84.85,6.36-127.46,8.37-49.17,2.32-98.93,6.87-147.93,3.51-47.7-3.27-93.67-12.22-140.7-17.76-45.93-5.42-80.77-6.14-124.52-15.77-16.64-3.65-31.39-9.7-47.49-14.03-24.42-6.56-105.65-17.78-117.63-34.35-6.01-8.32,21.05-15.24,30.26-17.66,12.65-3.36,25.47-6.51,38.58-9.24,15.76-3.31,31.77-6.17,47.91-8.88,70.98-11.9,139.65-14.47,212.65-15.75,11.89-.19,23.62-1.74,35.43-2.61,6.35-.48,17.94,1.72,18.95-1.94,1.05-3.68-12.02-2.98-16.89-5.39Z"/>
      <path class="cls-4" d="M1744.4,1145.03h-634.66c-5.83,0-10.56-4.73-10.56-10.56s4.73-10.56,10.56-10.56h634.66c5.83,0,10.56,4.73,10.56,10.56s-4.73,10.56-10.56,10.56Z"/>
      <path class="cls-4" d="M3571.09,1145.03h-1398.84c-16.86,0-30.53-4.86-30.53-10.85s13.68-10.85,30.53-10.85h1398.84c16.86,0,30.53,4.86,30.53,10.85s-13.68,10.85-30.53,10.85Z"/>
      <path class="cls-4" d="M865.76,1128.62c-5.8,0-10.53-4.69-10.56-10.5-.03-5.83,4.67-10.58,10.5-10.61,5.58-.03,9.62-1.1,11.08-2.94,3-3.81,.33-14.98-1.24-21.68-1.15-4.87-2.14-9.07-2.17-12.85-.03-5.83,4.67-10.57,10.5-10.61l14.52-.08c34.78-29.84,72.75-50.53,109.53-70.58,21.66-11.81,42.15-22.97,61.72-35.76,12.37-14.78,47.12-37.14,87.76-62.63,11.46-7.18,24.22-15.18,29.28-18.87,1.73-3.41,5.28-5.76,9.38-5.79h.05c4.7,0,9.38,3.31,10.67,7.82,2.67,9.14,.36,10.58-38.16,34.74-27.55,17.27-73.63,46.16-83.39,59.03-.71,.96-1.59,1.77-2.61,2.43-20.7,13.64-43.03,25.8-64.61,37.57-36.81,20.06-74.86,40.8-108.71,70.49-1.9,1.68-4.34,2.61-6.9,2.63l-5.75,.03c2.67,11.45,5.39,26.15-3.27,37.16-5.69,7.23-14.96,10.94-27.58,11.01h-.06Z"/>
      <g>
        <path class="cls-2" d="M1444.57,1134.47h-261.53V610.23h261.53v524.24Z"/>
        <path class="cls-4" d="M1444.58,1145.03h-261.54c-5.83,0-10.56-4.73-10.56-10.56V610.23c0-5.83,4.73-10.56,10.56-10.56h261.54c5.83,0,10.56,4.73,10.56,10.56v524.24c0,5.83-4.73,10.56-10.56,10.56Zm-250.99-21.11h240.43v-503.13h-240.43v503.13Z"/>
      </g>
      <g>
        <g>
          <path class="cls-1" d="M1051.52,265.05c-13.72,96.89-57.17,202.96-47.4,302.4,5.89,59.53,41.23,118.35,74.3,163.46,61.27,83.58,184.25,158.55,283.06,128.11,45.11-13.89,91.32-37.48,128.48-67.58,50.73-41.22,76.98-109.44,91.59-178.17,34.43-161.9-20.12-320.99-63-472.29"/>
          <path class="cls-4" d="M1314.62,876.37c-90.34,0-189.68-64.11-244.72-139.23-46.38-63.25-71.35-118.41-76.29-168.64-6.54-66.64,10.01-135.54,26.04-202.17,8.58-35.77,16.72-69.56,21.42-102.76,.82-5.75,6.02-9.9,11.93-8.96,5.77,.81,9.79,6.16,8.96,11.93-4.84,34.19-13.44,70.04-21.8,104.72-15.59,64.93-31.73,132.06-25.54,195.16,4.59,46.35,28.24,98.12,72.33,158.24,61.06,83.37,179.34,152.64,271.41,124.27,45.61-14.04,89.99-37.36,124.93-65.71,41.73-33.9,70.49-90.22,87.92-172.16,30.63-143.95-10.56-286.27-50.4-423.89l-12.43-43.33c-1.59-5.61,1.65-11.44,7.26-13.03,5.72-1.65,11.46,1.69,13.03,7.29l12.43,43.21c40.55,140.12,82.48,285.02,50.78,434.16-18.5,86.85-49.65,147.09-95.29,184.16-37.01,30.01-83.91,54.68-132.02,69.49-16.08,4.95-32.88,7.26-49.96,7.26Z"/>
        </g>
        <path class="cls-4" d="M1107.62,337.42c-.49,0-.99-.03-1.48-.11-5.77-.81-9.79-6.16-8.96-11.93,8.83-62.02-12.92-112.43-35.93-165.81-11.02-25.56-22.41-51.98-30.35-79.99-1.59-5.61,1.65-11.45,7.26-13.05,5.47-1.66,11.44,1.65,13.03,7.27,7.59,26.7,18.7,52.47,29.45,77.41,23.15,53.71,47.1,109.24,37.45,177.14-.74,5.26-5.25,9.07-10.45,9.07Z"/>
        <path class="cls-4" d="M1214.3,304.58c-5.33,0-9.9-4-10.5-9.42-12.4-113.68-43.66-238.37-94.16-247.36-5.75-1.02-9.57-6.5-8.55-12.25,1.02-5.72,6.63-9.51,12.23-8.54,75.91,13.5,103.24,190.42,111.49,265.86,.63,5.79-3.57,11-9.35,11.63-.38,.05-.8,.07-1.15,.07Z"/>
        <path class="cls-4" d="M1280.94,259.44c-.47,0-.96-.03-1.48-.1-5.77-.82-9.79-6.16-8.96-11.93,7.7-54.77-13.5-107.58-34.01-158.66-9.27-23.03-18.81-46.83-25.49-70.37-1.59-5.61,1.65-11.45,7.26-13.05,5.55-1.64,11.44,1.65,13.03,7.27,6.38,22.46,15.31,44.72,24.77,68.28,21.55,53.65,43.82,109.12,35.33,169.47-.74,5.28-5.25,9.09-10.45,9.09Z"/>
        <path class="cls-4" d="M1361.55,278.98c-5.47,0-10.09-4.19-10.53-9.72-7.29-91.92-15.67-169.04-50.86-254.67-2.23-5.39,.36-11.56,5.75-13.77,5.42-2.25,11.55,.33,13.77,5.75,36.32,88.31,45.2,170.46,52.4,261.02,.47,5.81-3.88,10.9-9.71,11.37-.27,.01-.55,.03-.82,.03Z"/>
        <path class="cls-4" d="M1430.5,249.82c-.47,0-.96-.03-1.48-.11-5.77-.81-9.79-6.14-8.96-11.92,10.31-73.05-9.49-121.14-36.87-187.7-2.23-5.39,.36-11.56,5.75-13.77,5.36-2.25,11.55,.34,13.77,5.75,28.65,69.63,49.38,119.95,38.24,198.67-.74,5.28-5.25,9.09-10.45,9.09Z"/>
        <path class="cls-4" d="M1486.7,213.19c-5.17,0-9.68-3.77-10.45-9-1.43-9.6-2.5-18.63-3.52-27.3-3.57-30.12-6.41-53.91-21.11-82.84-2.64-5.2-.58-11.55,4.62-14.2,5.22-2.56,11.55-.58,14.19,4.63,16.41,32.26,19.6,58.97,23.26,89.9,1.02,8.5,2.06,17.32,3.46,26.7,.85,5.77-3.13,11.15-8.91,12-.52,.07-1.04,.11-1.54,.11Z"/>
      </g>
      <g>
        <polyline class="cls-1" points="939.74 1165.52 1184.33 1197.47 991.13 1371.07"/>
        <path class="cls-4" d="M991.13,1381.63c-2.89,0-5.77-1.18-7.86-3.51-3.88-4.33-3.52-11.01,.8-14.9l176.12-158.25-221.82-28.98c-5.77-.76-9.84-6.06-9.1-11.85,.77-5.75,5.99-9.71,11.85-9.1l244.58,31.96c4.07,.54,7.48,3.41,8.72,7.34,1.21,3.95,.03,8.23-3.02,10.98l-193.2,173.59c-2.03,1.81-4.54,2.71-7.07,2.71Z"/>
      </g>
      <g>
        <polyline class="cls-1" points="939.74 1205.19 1075.15 1226.26 981.41 1332.2"/>
        <path class="cls-4" d="M981.4,1342.75c-2.5,0-4.98-.88-6.98-2.65-4.37-3.86-4.78-10.53-.93-14.9l80.97-91.47-116.32-18.1c-5.77-.89-9.71-6.3-8.8-12.06,.88-5.73,6.02-9.68,12.04-8.81l135.4,21.07c3.82,.59,7.01,3.22,8.3,6.86,1.32,3.63,.55,7.68-2.01,10.57l-93.75,105.93c-2.09,2.35-5,3.56-7.92,3.56Z"/>
      </g>
      <g>
        <line class="cls-1" x1="865.13" y1="1250.67" x2="1027.28" y2="1268.29"/>
        <path class="cls-4" d="M1027.29,1278.86c-.36,0-.74-.01-1.13-.07l-162.16-17.61c-5.8-.63-10.01-5.84-9.38-11.64,.63-5.76,5.36-10.36,11.63-9.35l162.16,17.61c5.8,.63,10.01,5.84,9.38,11.64-.6,5.4-5.17,9.42-10.5,9.42Z"/>
      </g>
      <g>
        <line class="cls-1" x1="1000.89" y1="1219.87" x2="939.74" y2="1320.67"/>
        <path class="cls-4" d="M939.75,1331.23c-1.87,0-3.77-.49-5.47-1.53-4.98-3.02-6.57-9.53-3.55-14.5l61.15-100.8c3.02-5,9.54-6.57,14.49-3.56,4.98,3.02,6.57,9.53,3.55,14.5l-61.15,100.8c-1.98,3.27-5.47,5.09-9.02,5.09Z"/>
      </g>
      <g>
        <polygon class="cls-1" points="279.93 897.87 884.53 911.09 991.13 1371.07 394.73 1337.47 279.93 897.87"/>
        <path class="cls-4" d="M991.13,1381.63c-.19,0-.38,0-.6-.01l-596.41-33.6c-4.56-.26-8.44-3.44-9.62-7.88l-114.78-439.6c-.82-3.2-.11-6.61,1.95-9.21,2.06-2.63,6.35-4.17,8.5-4.01l604.58,13.22c4.84,.11,8.96,3.48,10.06,8.18l106.62,459.98c.74,3.23-.06,6.64-2.2,9.18-2.01,2.38-4.98,3.75-8.08,3.75Zm-588.14-54.26l574.67,32.37-101.59-438.27-582.39-12.74,109.31,418.64Z"/>
      </g>
      <path class="cls-4" d="M319.53,1176.07H10.56c-5.83,0-10.56-4.73-10.56-10.56s4.73-10.56,10.56-10.56H319.53c5.83,0,10.56,4.73,10.56,10.56s-4.73,10.56-10.56,10.56Z"/>
      <g>
        <path class="cls-2" d="M2064.28,978.05l-249.86-.33,11.49-36.94c5.99-16.8,22.19-27.33,39.76-27.51l147.39,.18h.08c17.49,0,33.13,11.09,38.96,27.63l12.18,36.96Zm-211.62-28.43l172.66,.22c-1.84-4.84-6.76-8.23-12.23-8.23h-.03l-147.69-.18c-5.11,.37-10.64,3.18-12.7,8.19Z"/>
        <path class="cls-2" d="M2021.28,1341.13h-.06l-165.48-.21c-12.23,0-22.41-9.6-23.09-21.84l-3.33-60.35,219.29,.27-4.21,60.4c-.77,12.19-10.91,21.72-23.12,21.72Zm-.03-28.15h0Zm-160.75-.21l156.13,.21,1.79-25.84-159.35-.22,1.43,25.86Z"/>
        <path class="cls-2" d="M2047.7,1268.97l-217.83-.27-9.98-173.63,238.23,.29-10.42,173.62Zm-191.27-28.4l164.77,.22,7.01-117.31-178.51-.23,6.74,117.33Z"/>
        <path class="cls-2" d="M2057.41,1105.33l-236.83-.3-5.72-82.71,248.43,.32-5.88,82.7Zm-210.54-28.43l184.32,.25,1.87-26.39-188-.26,1.81,26.41Z"/>
        <path class="cls-2" d="M2075.5,1032.61h-.06l-272.76-.34c-12.76-.04-23.12-10.43-23.12-23.19l.03-18.2c0-12.74,10.39-23.14,23.18-23.14l272.79,.36c12.73,0,23.12,10.39,23.12,23.18l-.03,18.21c0,6.19-2.42,12-6.79,16.36-4.37,4.37-10.17,6.76-16.36,6.76Zm-.03-28.15h0Zm-267.76-.34l262.78,.34,.03-8.21-262.78-.36-.03,8.22Z"/>
        <path class="cls-2" d="M1938.91,1223.37h-.08c-11.05-.01-21.42-4.33-29.23-12.15-7.81-7.82-12.1-18.21-12.07-29.27,.06-22.78,18.59-41.29,41.35-41.29h.06c11.05,.01,21.42,4.33,29.23,12.15,7.81,7.82,12.1,18.21,12.07,29.27-.03,11.04-4.34,21.42-12.15,29.21-7.78,7.79-18.15,12.08-29.17,12.08Zm-.03-54.56c-7.26,0-13.2,5.91-13.2,13.2,0,3.52,1.37,6.83,3.85,9.32,2.5,2.5,5.8,3.89,9.35,3.89h.03c3.49,0,6.79-1.36,9.29-3.85,2.5-2.49,3.88-5.81,3.88-9.35s-1.37-6.83-3.85-9.32c-2.5-2.5-5.8-3.89-9.35-3.89h0Z"/>
      </g>
      <g>
        <path class="cls-2" d="M651.25,1100.34c4.47,31.12-17.15,59.97-48.27,64.44-31.13,4.47-59.98-17.15-64.44-48.27-4.47-31.12,17.15-59.97,48.27-64.44,31.12-4.47,59.98,17.15,64.44,48.27Z"/>
        <path class="cls-2" d="M594.76,1175.93c-14.49,0-28.54-4.65-40.33-13.49-14.43-10.8-23.78-26.6-26.34-44.44-2.58-17.84,1.95-35.62,12.76-50.04,10.8-14.43,26.59-23.8,44.43-26.35,36.98-5.36,71.15,20.41,76.4,57.23,2.56,17.84-1.98,35.62-12.76,50.04-10.8,14.43-26.59,23.8-44.43,26.35-3.27,.47-6.52,.7-9.73,.7Zm.14-113.89c-2.2,0-4.4,.15-6.63,.47-12.23,1.76-23.09,8.19-30.52,18.1-7.42,9.91-10.53,22.13-8.77,34.39,1.76,12.26,8.19,23.11,18.09,30.55,9.93,7.42,22.3,10.52,34.39,8.78,12.26-1.76,23.12-8.19,30.55-18.1,7.42-9.91,10.53-22.13,8.77-34.39h0c-3.3-23.09-23.2-39.8-45.89-39.8Z"/>
      </g>
      <path class="cls-4" d="M1032.73,1221.39c-1.9,0-3.82-.51-5.55-1.58-12.34-7.64-18.31-18.98-16.33-31.11,2.14-13.09,13.36-24.65,27.55-28.62,11.6-6.2,21.09-.3,26.31,2.93,.96,.59,1.98,1.22,2.89,1.72,20.4-9.91,117.7-96.41,176.59-148.74,47.59-42.31,74.89-66.48,82.45-71.15,84.49-52.25,91.91-50.45,97.02-49.3,5.66,1.33,9.18,7.02,7.86,12.7-1.18,4.96-6.13,7.97-10.64,8.14-6.71,1.7-35.11,16.72-83.14,46.42-6.38,3.93-41.93,35.52-79.54,68.97-163.23,145.05-181.87,156.96-193.72,154.25-4.37-1.03-7.97-3.26-10.89-5.05-1.46-.92-3.93-2.45-4.76-2.47-.96,.59-2.91,1.47-4.01,1.73-6.43,1.51-12.32,6.83-13.14,11.86-.55,3.42,1.65,6.71,6.6,9.76,4.95,3.07,6.49,9.57,3.44,14.53-2.01,3.23-5.47,5-8.99,5Z"/>
      <g>
        <g>
          <path class="cls-4" d="M1368.45,511.93c-4.04,0-9.6-1.91-13.14-11.04-3.49-9.03-11.41-51.33,1.73-63.3,4.37-4,10.58-4.78,16.11-2.01h.03c15.2,7.62,16.39,30.72,16.39,37.62s-1.18,30-16.39,37.61c-1.46,.73-3.08,1.11-4.73,1.11Z"/>
          <path class="cls-4" d="M1197.11,513.96c-.63,0-1.24-.05-1.84-.15-3.27-.51-13.22-2.06-18.12-33.34-2.61-16.78-2.91-38.19,10.5-44.9,.47-.22,.91-.41,1.4-.58,8.74-2.91,20.56-.81,26.75,14.16,6.96,16.74,5.31,49.05-8.77,59.84-2.86,3.62-6.63,4.96-9.93,4.96Zm-.14-54.88c-.47,5.32,.14,13.03,1.32,20.07,.3-2.63,.44-5.54,.36-8.67-.14-4.96-.88-8.76-1.68-11.4Z"/>
        </g>
        <path class="cls-4" d="M1267.22,747.62c-9.82,0-19.88-1.62-29.14-4.43-30.9-9.36-50.12-29.62-50.12-52.9,4.23-30.34,23.81-49.72,55.26-56.06,48.66-9.84,110.58,13.83,132.66,50.63,3,5,1.37,11.48-3.6,14.49-4.98,2.96-11.49,1.39-14.49-3.63-17.38-28.92-70.96-48.73-110.39-40.8-15.56,3.15-34.89,12.1-38.44,36.87,.11,14.78,19.03,26.28,35.25,31.19,21.88,6.63,43.63,3.6,50.7-6.98,3.27-4.87,9.82-6.1,14.65-2.93,4.84,3.23,6.16,9.79,2.94,14.64-9.49,14.23-26.94,19.91-45.28,19.91Z"/>
      </g>
    </g>
  </g>
</svg>