<svg xmlns="http://www.w3.org/2000/svg" width="99.948" height="97.45" viewBox="0 0 99.948 97.45">
  <path id="Icon_awesome-github" data-name="Icon awesome-github" d="M33.43,79.029c0,.4-.463.725-1.048.725-.665.06-1.128-.262-1.128-.725,0-.4.463-.725,1.048-.725C32.906,78.243,33.43,78.566,33.43,79.029Zm-6.267-.907c-.141.4.262.866.866.987a.945.945,0,0,0,1.249-.4c.121-.4-.262-.866-.866-1.048A1.034,1.034,0,0,0,27.163,78.123Zm8.907-.343c-.584.141-.987.524-.927.987.06.4.584.665,1.189.524.584-.141.987-.524.927-.927C37.2,77.982,36.654,77.72,36.07,77.78ZM49.329.563C21.38.563,0,21.781,0,49.73a50.52,50.52,0,0,0,34.155,48.2c2.579.463,3.486-1.128,3.486-2.438,0-1.249-.06-8.141-.06-12.373,0,0-14.105,3.023-17.068-6,0,0-2.3-5.864-5.6-7.375,0,0-4.615-3.164.322-3.1a10.637,10.637,0,0,1,7.778,5.2c4.413,7.778,11.808,5.541,14.69,4.212a11.2,11.2,0,0,1,3.224-6.791C29.662,68.007,18.3,66.375,18.3,46.99c0-5.541,1.531-8.322,4.756-11.869a19.039,19.039,0,0,1,.524-13.682c4.211-1.31,13.9,5.441,13.9,5.441a47.6,47.6,0,0,1,25.309,0s9.692-6.771,13.9-5.441c2.761,6.992,1.048,12.373.524,13.682,3.224,3.567,5.2,6.347,5.2,11.869,0,19.445-11.869,21-23.133,22.267,1.854,1.592,3.426,4.615,3.426,9.35,0,6.791-.06,15.194-.06,16.846,0,1.31.927,2.9,3.486,2.438C86.285,91.2,99.948,72.077,99.948,49.73,99.948,21.781,77.278.563,49.329.563Zm-29.742,69.5c-.262.2-.2.665.141,1.048.322.322.786.463,1.048.2.262-.2.2-.665-.141-1.048C20.312,69.941,19.848,69.8,19.586,70.062ZM17.41,68.43c-.141.262.06.584.463.786a.6.6,0,0,0,.866-.141c.141-.262-.06-.584-.463-.786C17.874,68.168,17.551,68.229,17.41,68.43ZM23.939,75.6c-.322.262-.2.866.262,1.249.463.463,1.048.524,1.31.2.262-.262.141-.866-.262-1.249C24.806,75.342,24.2,75.281,23.939,75.6Zm-2.3-2.962c-.322.2-.322.725,0,1.189s.866.665,1.128.463a.919.919,0,0,0,0-1.249C22.488,72.581,21.964,72.38,21.642,72.642Z" transform="translate(0 -0.563)" fill="#000"/>
</svg>
