<svg xmlns="http://www.w3.org/2000/svg" width="97.453" height="97.45" viewBox="0 0 97.453 97.45">
  <path id="Icon_awesome-linkedin-in" data-name="Icon awesome-linkedin-in" d="M21.814,97.451H1.61V32.388h20.2ZM11.7,23.513A11.756,11.756,0,1,1,23.4,11.7,11.8,11.8,0,0,1,11.7,23.513Zm85.73,73.938H77.27V65.779c0-7.548-.152-17.228-10.5-17.228-10.5,0-12.114,8.2-12.114,16.684V97.451H34.469V32.388H53.847v8.875h.283c2.7-5.112,9.286-10.507,19.116-10.507,20.448,0,24.206,13.465,24.206,30.954v35.74Z" transform="translate(0 -0.001)" fill="#000"/>
</svg>
